solid ACE Case
facet normal 0.0 0.0 1.0
  outer loop
    vertex 32.36347330937959 64.88365756102718 0.9999999999999999
    vertex 30.36347330937959 63.383657561027185 0.9999999999999999
    vertex 30.36347330937959 62.883657561027185 0.9999999999999999
  endloop
endfacet
facet normal 0.0 0.0 1.0
  outer loop
    vertex 30.36347330937959 63.383657561027185 0.9999999999999999
    vertex 32.36347330937959 64.88365756102718 0.9999999999999999
    vertex 30.36347330937959 64.88365756102718 0.9999999999999999
  endloop
endfacet
facet normal 0.0 0.0 1.0
  outer loop
    vertex 18.76347330937962 81.48365756102719 1.0000000000000036
    vertex 18.76347330937962 83.48365756102719 1.0000000000000036
    vertex 16.76347330937962 81.48365756102719 1.0000000000000036
  endloop
endfacet
facet normal 0.0 0.0 1.0
  outer loop
    vertex 18.76347330937962 83.48365756102719 1.0000000000000036
    vertex 18.76347330937962 81.48365756102719 1.0000000000000036
    vertex 18.76347330937962 82.98365756102719 1.0000000000000036
  endloop
endfacet
facet normal 2.643718577388655e-16 -2.6094810102800496e-32 1.0
  outer loop
    vertex 18.76347330937962 62.883657561027185 1.0000000000000029
    vertex 18.76347330937962 64.88365756102718 1.0000000000000029
    vertex 16.76347330937962 64.88365756102718 1.0000000000000036
  endloop
endfacet
facet normal 2.643718577388655e-16 -2.6094810102800496e-32 1.0
  outer loop
    vertex 18.76347330937962 64.88365756102718 1.0000000000000029
    vertex 18.76347330937962 62.883657561027185 1.0000000000000029
    vertex 18.76347330937962 63.383657561027185 1.0000000000000029
  endloop
endfacet
facet normal 5.287437154777331e-16 6.001806323644097e-30 1.0
  outer loop
    vertex 32.36347330937959 81.4836575610272 0.9999999999999999
    vertex 30.36347330937959 82.98365756102719 1.000000000000002
    vertex 30.36347330937959 81.4836575610272 1.0000000000000004
  endloop
endfacet
facet normal 5.287437154777331e-16 6.001806323644097e-30 1.0
  outer loop
    vertex 30.36347330937959 82.98365756102719 1.000000000000002
    vertex 32.36347330937959 81.4836575610272 0.9999999999999999
    vertex 30.36347330937959 83.4836575610272 1.0000000000000004
  endloop
endfacet
facet normal -8.665638780265202e-05 -5.617679331449258e-05 -0.9999999946674192
  outer loop
    vertex 30.36347330937959 84.18365756102719 0.002805735294116432
    vertex 18.76347330937962 83.98365756102719 0.01907900000000358
    vertex 18.76347330937962 84.18365756102718 0.01907900000000358
  endloop
endfacet
facet normal -8.665638780265202e-05 -5.617679331449258e-05 -0.9999999946674192
  outer loop
    vertex 18.76347330937962 83.98365756102719 0.01907900000000358
    vertex 30.36347330937959 84.18365756102719 0.002805735294116432
    vertex 18.76347330937962 83.48365756102719 0.01907900000000358
  endloop
endfacet
facet normal -8.665638780265202e-05 -5.617679331449258e-05 -0.9999999946674192
  outer loop
    vertex 18.76347330937962 83.48365756102719 0.01907900000000358
    vertex 30.36347330937959 84.18365756102719 0.002805735294116432
    vertex 19.76347330937962 78.18365756102718 0.014595067638948467
  endloop
endfacet
facet normal -8.665638780265202e-05 -5.617679331449258e-05 -0.9999999946674192
  outer loop
    vertex 19.76347330937962 78.18365756102718 0.014595067638948467
    vertex 30.36347330937959 84.18365756102719 0.002805735294116432
    vertex 19.76347330937962 68.1836575610272 0.014595067638948467
  endloop
endfacet
facet normal -8.665638780265202e-05 -5.617679331449258e-05 -0.9999999946674192
  outer loop
    vertex 19.76347330937962 68.1836575610272 0.014595067638948467
    vertex 30.36347330937959 84.18365756102719 0.002805735294116432
    vertex 27.86347330937959 76.18365756102719 0.013883319099928716
  endloop
endfacet
facet normal -8.665638780265202e-05 -5.617679331449258e-05 -0.9999999946674192
  outer loop
    vertex 27.86347330937959 76.18365756102719 0.013883319099928716
    vertex 30.36347330937959 84.18365756102719 0.002805735294116432
    vertex 30.36347330937959 83.4836575610272 0.002805735294116432
  endloop
endfacet
facet normal -8.665638780265202e-05 -5.617679331449258e-05 -0.9999999946674192
  outer loop
    vertex 27.86347330937959 76.18365756102719 0.013883319099928716
    vertex 30.36347330937959 83.4836575610272 0.002805735294116432
    vertex 32.86347330937959 76.18365756102719 0.013883319099928364
  endloop
endfacet
facet normal -8.665638780265202e-05 -5.617679331449258e-05 -0.9999999946674192
  outer loop
    vertex 30.36347330937959 83.4836575610272 0.002805735294116432
    vertex 30.36347330937959 84.18365756102719 0.002805735294116432
    vertex 30.36347330937959 83.98365756102719 0.002805735294116432
  endloop
endfacet
facet normal -8.665638780265202e-05 -5.617679331449258e-05 -0.9999999946674192
  outer loop
    vertex 32.86347330937959 76.18365756102719 0.013883319099928364
    vertex 30.36347330937959 83.4836575610272 0.002805735294116432
    vertex 32.36347330937959 81.4836575610272 0.0028057352941157267
  endloop
endfacet
facet normal -8.665638780265202e-05 -5.617679331449258e-05 -0.9999999946674192
  outer loop
    vertex 32.86347330937959 76.18365756102719 0.013883319099928364
    vertex 32.36347330937959 81.4836575610272 0.0028057352941157267
    vertex 32.86347330937959 81.4836575610272 0.0028057352941157267
  endloop
endfacet
facet normal -8.665638780265202e-05 -5.617679331449258e-05 -0.9999999946674192
  outer loop
    vertex 32.86347330937959 70.18365756102719 0.013883319099928716
    vertex 30.36347330937959 62.883657561027185 0.019079000000000144
    vertex 27.86347330937959 70.18365756102719 0.013883319099928893
  endloop
endfacet
facet normal -8.665638780265202e-05 -5.617679331449258e-05 -0.9999999946674192
  outer loop
    vertex 30.36347330937959 62.883657561027185 0.019079000000000144
    vertex 32.86347330937959 70.18365756102719 0.013883319099928716
    vertex 32.36347330937959 64.88365756102718 0.019079000000000144
  endloop
endfacet
facet normal -8.665638780265202e-05 -5.617679331449258e-05 -0.9999999946674192
  outer loop
    vertex 32.36347330937959 64.88365756102718 0.019079000000000144
    vertex 32.86347330937959 70.18365756102719 0.013883319099928716
    vertex 32.86347330937959 64.88365756102718 0.019079000000000144
  endloop
endfacet
facet normal -8.665638780265202e-05 -5.617679331449258e-05 -0.9999999946674192
  outer loop
    vertex 19.76347330937962 68.1836575610272 0.014595067638948467
    vertex 16.263473309379624 64.88365756102718 0.005034985435190854
    vertex 16.263473309379624 68.1836575610272 0.014595067638949171
  endloop
endfacet
facet normal -8.665638780265202e-05 -5.617679331449258e-05 -0.9999999946674192
  outer loop
    vertex 16.263473309379624 64.88365756102718 0.005034985435190854
    vertex 19.76347330937962 68.1836575610272 0.014595067638948467
    vertex 16.76347330937962 64.88365756102718 0.005034985435190854
  endloop
endfacet
facet normal -8.665638780265202e-05 -5.617679331449258e-05 -0.9999999946674192
  outer loop
    vertex 16.76347330937962 64.88365756102718 0.005034985435190854
    vertex 19.76347330937962 68.1836575610272 0.014595067638948467
    vertex 18.76347330937962 62.883657561027185 0.005034985435190325
  endloop
endfacet
facet normal -8.665638780265202e-05 -5.617679331449258e-05 -0.9999999946674192
  outer loop
    vertex 18.76347330937962 62.883657561027185 0.005034985435190325
    vertex 19.76347330937962 68.1836575610272 0.014595067638948467
    vertex 18.76347330937962 62.383657561027185 0.005034985435190325
  endloop
endfacet
facet normal -8.665638780265202e-05 -5.617679331449258e-05 -0.9999999946674192
  outer loop
    vertex 18.76347330937962 62.383657561027185 0.005034985435190325
    vertex 19.76347330937962 68.1836575610272 0.014595067638948467
    vertex 18.76347330937962 62.18365756102719 0.005034985435190325
  endloop
endfacet
facet normal -8.665638780265202e-05 -5.617679331449258e-05 -0.9999999946674192
  outer loop
    vertex 18.76347330937962 62.18365756102719 0.005034985435190325
    vertex 19.76347330937962 68.1836575610272 0.014595067638948467
    vertex 30.36347330937959 62.18365756102719 0.019079000000000144
  endloop
endfacet
facet normal -8.665638780265202e-05 -5.617679331449258e-05 -0.9999999946674192
  outer loop
    vertex 30.36347330937959 62.18365756102719 0.019079000000000144
    vertex 19.76347330937962 68.1836575610272 0.014595067638948467
    vertex 27.86347330937959 70.18365756102719 0.013883319099928893
  endloop
endfacet
facet normal -8.665638780265202e-05 -5.617679331449258e-05 -0.9999999946674192
  outer loop
    vertex 27.86347330937959 70.18365756102719 0.013883319099928893
    vertex 19.76347330937962 68.1836575610272 0.014595067638948467
    vertex 27.86347330937959 76.18365756102719 0.013883319099928716
  endloop
endfacet
facet normal -8.665638780265202e-05 -5.617679331449258e-05 -0.9999999946674192
  outer loop
    vertex 30.36347330937959 62.18365756102719 0.019079000000000144
    vertex 27.86347330937959 70.18365756102719 0.013883319099928893
    vertex 30.36347330937959 62.883657561027185 0.019079000000000144
  endloop
endfacet
facet normal -8.665638780265202e-05 -5.617679331449258e-05 -0.9999999946674192
  outer loop
    vertex 30.36347330937959 62.18365756102719 0.019079000000000144
    vertex 30.36347330937959 62.883657561027185 0.019079000000000144
    vertex 30.36347330937959 62.383657561027185 0.019079000000000144
  endloop
endfacet
facet normal -8.665638780265202e-05 -5.617679331449258e-05 -0.9999999946674192
  outer loop
    vertex 16.76347330937962 81.48365756102719 0.01907900000000358
    vertex 16.263473309379624 78.18365756102718 0.014595067638949171
    vertex 16.263473309379624 81.48365756102719 0.01907900000000358
  endloop
endfacet
facet normal -8.665638780265202e-05 -5.617679331449258e-05 -0.9999999946674192
  outer loop
    vertex 16.263473309379624 78.18365756102718 0.014595067638949171
    vertex 16.76347330937962 81.48365756102719 0.01907900000000358
    vertex 19.76347330937962 78.18365756102718 0.014595067638948467
  endloop
endfacet
facet normal -8.665638780265202e-05 -5.617679331449258e-05 -0.9999999946674192
  outer loop
    vertex 19.76347330937962 78.18365756102718 0.014595067638948467
    vertex 16.76347330937962 81.48365756102719 0.01907900000000358
    vertex 18.76347330937962 83.48365756102719 0.01907900000000358
  endloop
endfacet
facet normal -1.0 0.0 2.349972068789914e-16
  outer loop
    vertex 19.76347330937962 70.18365756102719 1.0000000000000027
    vertex 19.76347330937962 68.1836575610272 0.014595067638948467
    vertex 19.76347330937962 68.1836575610272 1.0000000000000027
  endloop
endfacet
facet normal -1.0 0.0 2.349972068789914e-16
  outer loop
    vertex 19.76347330937962 68.1836575610272 0.014595067638948467
    vertex 19.76347330937962 70.18365756102719 1.0000000000000027
    vertex 19.76347330937962 78.18365756102718 0.014595067638948467
  endloop
endfacet
facet normal -1.0 0.0 2.349972068789914e-16
  outer loop
    vertex 19.76347330937962 78.18365756102718 0.014595067638948467
    vertex 19.76347330937962 70.18365756102719 1.0000000000000027
    vertex 19.76347330937962 76.18365756102719 1.0000000000000027
  endloop
endfacet
facet normal -1.0 0.0 2.349972068789914e-16
  outer loop
    vertex 19.76347330937962 78.18365756102718 0.014595067638948467
    vertex 19.76347330937962 76.18365756102719 1.0000000000000027
    vertex 19.76347330937962 78.18365756102718 1.0000000000000027
  endloop
endfacet
facet normal 2.582943437678576e-16 0.0 1.0
  outer loop
    vertex 30.36347330937959 62.18365756102719 1.9999999999999998
    vertex 18.76347330937962 63.383657561027185 2.0000000000000027
    vertex 18.76347330937962 62.18365756102719 2.0000000000000027
  endloop
endfacet
facet normal 2.582943437678576e-16 0.0 1.0
  outer loop
    vertex 18.76347330937962 63.383657561027185 2.0000000000000027
    vertex 30.36347330937959 62.18365756102719 1.9999999999999998
    vertex 30.36347330937959 63.383657561027185 1.9999999999999998
  endloop
endfacet
facet normal 1.0 0.0 0.0
  outer loop
    vertex 30.36347330937959 62.383657561027185 0.9999999999999999
    vertex 30.36347330937959 62.18365756102719 1.9999999999999998
    vertex 30.36347330937959 62.18365756102719 0.9999999999999999
  endloop
endfacet
facet normal 1.0 0.0 0.0
  outer loop
    vertex 30.36347330937959 62.18365756102719 1.9999999999999998
    vertex 30.36347330937959 62.383657561027185 0.9999999999999999
    vertex 30.36347330937959 63.383657561027185 1.9999999999999998
  endloop
endfacet
facet normal 1.0 0.0 0.0
  outer loop
    vertex 30.36347330937959 63.383657561027185 1.9999999999999998
    vertex 30.36347330937959 62.383657561027185 0.9999999999999999
    vertex 30.36347330937959 62.883657561027185 0.9999999999999999
  endloop
endfacet
facet normal 1.0 0.0 0.0
  outer loop
    vertex 30.36347330937959 63.383657561027185 1.9999999999999998
    vertex 30.36347330937959 62.883657561027185 0.9999999999999999
    vertex 30.36347330937959 63.383657561027185 0.9999999999999999
  endloop
endfacet
facet normal 0.0 1.0 0.0
  outer loop
    vertex 18.76347330937962 63.383657561027185 1.0000000000000029
    vertex 30.36347330937959 63.383657561027185 1.9999999999999998
    vertex 30.36347330937959 63.383657561027185 0.9999999999999999
  endloop
endfacet
facet normal 0.0 1.0 0.0
  outer loop
    vertex 30.36347330937959 63.383657561027185 1.9999999999999998
    vertex 18.76347330937962 63.383657561027185 1.0000000000000029
    vertex 18.76347330937962 63.383657561027185 2.0000000000000027
  endloop
endfacet
facet normal -1.0 0.0 0.0
  outer loop
    vertex 18.76347330937962 63.383657561027185 2.0000000000000027
    vertex 18.76347330937962 62.18365756102719 1.0000000000000029
    vertex 18.76347330937962 62.18365756102719 2.0000000000000027
  endloop
endfacet
facet normal -1.0 0.0 0.0
  outer loop
    vertex 18.76347330937962 62.18365756102719 1.0000000000000029
    vertex 18.76347330937962 63.383657561027185 2.0000000000000027
    vertex 18.76347330937962 62.383657561027185 1.0000000000000029
  endloop
endfacet
facet normal -1.0 0.0 0.0
  outer loop
    vertex 18.76347330937962 62.383657561027185 1.0000000000000029
    vertex 18.76347330937962 63.383657561027185 2.0000000000000027
    vertex 18.76347330937962 62.883657561027185 1.0000000000000029
  endloop
endfacet
facet normal -1.0 0.0 0.0
  outer loop
    vertex 18.76347330937962 62.883657561027185 1.0000000000000029
    vertex 18.76347330937962 63.383657561027185 2.0000000000000027
    vertex 18.76347330937962 63.383657561027185 1.0000000000000029
  endloop
endfacet
facet normal 1.8570066635568135e-16 3.1531299374635307e-18 1.0
  outer loop
    vertex 27.86347330937959 76.18365756102719 1.0000000000000018
    vertex 19.76347330937962 78.18365756102718 1.0000000000000027
    vertex 19.76347330937962 76.18365756102719 1.0000000000000027
  endloop
endfacet
facet normal 1.8570066635568135e-16 3.1531299374635307e-18 1.0
  outer loop
    vertex 32.86347330937959 76.18365756102719 1.0000000000000013
    vertex 30.36347330937959 81.4836575610272 1.0000000000000004
    vertex 27.86347330937959 76.18365756102719 1.0000000000000018
  endloop
endfacet
facet normal 1.8570066635568135e-16 3.1531299374635307e-18 1.0
  outer loop
    vertex 30.36347330937959 81.4836575610272 1.0000000000000004
    vertex 32.86347330937959 76.18365756102719 1.0000000000000013
    vertex 32.36347330937959 81.4836575610272 0.9999999999999999
  endloop
endfacet
facet normal 1.8570066635568135e-16 3.1531299374635307e-18 1.0
  outer loop
    vertex 32.36347330937959 81.4836575610272 0.9999999999999999
    vertex 32.86347330937959 76.18365756102719 1.0000000000000013
    vertex 32.86347330937959 81.4836575610272 0.9999999999999999
  endloop
endfacet
facet normal 1.8570066635568135e-16 3.1531299374635307e-18 1.0
  outer loop
    vertex 19.76347330937962 78.18365756102718 1.0000000000000027
    vertex 16.263473309379624 81.48365756102719 1.0000000000000036
    vertex 16.263473309379624 78.18365756102718 1.0000000000000036
  endloop
endfacet
facet normal 1.8570066635568135e-16 3.1531299374635307e-18 1.0
  outer loop
    vertex 16.263473309379624 81.48365756102719 1.0000000000000036
    vertex 19.76347330937962 78.18365756102718 1.0000000000000027
    vertex 16.76347330937962 81.48365756102719 1.0000000000000036
  endloop
endfacet
facet normal 1.8570066635568135e-16 3.1531299374635307e-18 1.0
  outer loop
    vertex 16.76347330937962 81.48365756102719 1.0000000000000036
    vertex 19.76347330937962 78.18365756102718 1.0000000000000027
    vertex 18.76347330937962 81.48365756102719 1.0000000000000036
  endloop
endfacet
facet normal 1.8570066635568135e-16 3.1531299374635307e-18 1.0
  outer loop
    vertex 18.76347330937962 81.48365756102719 1.0000000000000036
    vertex 19.76347330937962 78.18365756102718 1.0000000000000027
    vertex 18.76347330937962 82.98365756102719 1.0000000000000036
  endloop
endfacet
facet normal 1.8570066635568135e-16 3.1531299374635307e-18 1.0
  outer loop
    vertex 18.76347330937962 82.98365756102719 1.0000000000000036
    vertex 19.76347330937962 78.18365756102718 1.0000000000000027
    vertex 30.36347330937959 82.98365756102719 1.000000000000002
  endloop
endfacet
facet normal 1.8570066635568135e-16 3.1531299374635307e-18 1.0
  outer loop
    vertex 30.36347330937959 82.98365756102719 1.000000000000002
    vertex 19.76347330937962 78.18365756102718 1.0000000000000027
    vertex 27.86347330937959 76.18365756102719 1.0000000000000018
  endloop
endfacet
facet normal 1.8570066635568135e-16 3.1531299374635307e-18 1.0
  outer loop
    vertex 30.36347330937959 82.98365756102719 1.000000000000002
    vertex 27.86347330937959 76.18365756102719 1.0000000000000018
    vertex 30.36347330937959 81.4836575610272 1.0000000000000004
  endloop
endfacet
facet normal 1.899223115940126e-16 7.931155732165977e-16 1.0
  outer loop
    vertex 30.36347330937959 82.98365756102719 2.0000000000000018
    vertex 18.76347330937962 84.18365756102718 2.0000000000000036
    vertex 18.76347330937962 82.98365756102719 2.0000000000000036
  endloop
endfacet
facet normal 1.899223115940126e-16 7.931155732165977e-16 1.0
  outer loop
    vertex 18.76347330937962 84.18365756102718 2.0000000000000036
    vertex 30.36347330937959 82.98365756102719 2.0000000000000018
    vertex 30.36347330937959 84.18365756102719 2.0000000000000004
  endloop
endfacet
facet normal -1.0 0.0 0.0
  outer loop
    vertex 18.76347330937962 84.18365756102718 2.0000000000000036
    vertex 18.76347330937962 82.98365756102719 1.0000000000000036
    vertex 18.76347330937962 82.98365756102719 2.0000000000000036
  endloop
endfacet
facet normal -1.0 0.0 0.0
  outer loop
    vertex 18.76347330937962 82.98365756102719 1.0000000000000036
    vertex 18.76347330937962 84.18365756102718 2.0000000000000036
    vertex 18.76347330937962 83.48365756102719 1.0000000000000036
  endloop
endfacet
facet normal -1.0 0.0 0.0
  outer loop
    vertex 18.76347330937962 83.48365756102719 1.0000000000000036
    vertex 18.76347330937962 84.18365756102718 2.0000000000000036
    vertex 18.76347330937962 83.98365756102719 1.0000000000000036
  endloop
endfacet
facet normal -1.0 0.0 0.0
  outer loop
    vertex 18.76347330937962 83.98365756102719 1.0000000000000036
    vertex 18.76347330937962 84.18365756102718 2.0000000000000036
    vertex 18.76347330937962 84.18365756102718 1.0000000000000036
  endloop
endfacet
facet normal 0.0 -1.0 0.0
  outer loop
    vertex 30.36347330937959 82.98365756102719 2.0000000000000018
    vertex 18.76347330937962 82.98365756102719 1.0000000000000036
    vertex 30.36347330937959 82.98365756102719 1.000000000000002
  endloop
endfacet
facet normal 0.0 -1.0 0.0
  outer loop
    vertex 18.76347330937962 82.98365756102719 1.0000000000000036
    vertex 30.36347330937959 82.98365756102719 2.0000000000000018
    vertex 18.76347330937962 82.98365756102719 2.0000000000000036
  endloop
endfacet
facet normal 1.0 0.0 0.0
  outer loop
    vertex 30.36347330937959 83.4836575610272 1.0000000000000004
    vertex 30.36347330937959 82.98365756102719 2.0000000000000018
    vertex 30.36347330937959 82.98365756102719 1.000000000000002
  endloop
endfacet
facet normal 1.0 0.0 0.0
  outer loop
    vertex 30.36347330937959 82.98365756102719 2.0000000000000018
    vertex 30.36347330937959 83.4836575610272 1.0000000000000004
    vertex 30.36347330937959 84.18365756102719 2.0000000000000004
  endloop
endfacet
facet normal 1.0 0.0 0.0
  outer loop
    vertex 30.36347330937959 84.18365756102719 2.0000000000000004
    vertex 30.36347330937959 83.4836575610272 1.0000000000000004
    vertex 30.36347330937959 83.98365756102719 1.0000000000000004
  endloop
endfacet
facet normal 1.0 0.0 0.0
  outer loop
    vertex 30.36347330937959 84.18365756102719 2.0000000000000004
    vertex 30.36347330937959 83.98365756102719 1.0000000000000004
    vertex 30.36347330937959 84.18365756102719 1.0000000000000004
  endloop
endfacet
facet normal -1.0 0.0 0.0
  outer loop
    vertex 16.263473309379624 81.48365756102719 1.0000000000000036
    vertex 16.263473309379624 78.18365756102718 0.014595067638949171
    vertex 16.263473309379624 78.18365756102718 1.0000000000000036
  endloop
endfacet
facet normal -1.0 0.0 0.0
  outer loop
    vertex 16.263473309379624 78.18365756102718 0.014595067638949171
    vertex 16.263473309379624 81.48365756102719 1.0000000000000036
    vertex 16.263473309379624 81.48365756102719 0.01907900000000358
  endloop
endfacet
facet normal -1.0 0.0 0.0
  outer loop
    vertex 16.263473309379624 68.1836575610272 1.0000000000000036
    vertex 16.263473309379624 64.88365756102718 0.005034985435190854
    vertex 16.263473309379624 64.88365756102718 1.0000000000000036
  endloop
endfacet
facet normal -1.0 0.0 0.0
  outer loop
    vertex 16.263473309379624 64.88365756102718 0.005034985435190854
    vertex 16.263473309379624 68.1836575610272 1.0000000000000036
    vertex 16.263473309379624 68.1836575610272 0.014595067638949171
  endloop
endfacet
facet normal 1.0 0.0 0.0
  outer loop
    vertex 32.86347330937959 70.18365756102719 0.013883319099928716
    vertex 32.86347330937959 64.88365756102718 0.9999999999999999
    vertex 32.86347330937959 64.88365756102718 0.019079000000000144
  endloop
endfacet
facet normal 1.0 0.0 0.0
  outer loop
    vertex 32.86347330937959 64.88365756102718 0.9999999999999999
    vertex 32.86347330937959 70.18365756102719 0.013883319099928716
    vertex 32.86347330937959 70.18365756102719 1.0000000000000018
  endloop
endfacet
facet normal -1.5475425818860452e-16 1.5475425818860452e-16 -1.0
  outer loop
    vertex 32.86347330937959 81.4836575610272 0.0028057352941157267
    vertex 30.36347330937959 83.4836575610272 0.002805735294116432
    vertex 30.36347330937959 83.98365756102719 0.002805735294116432
  endloop
endfacet
facet normal -1.5475425818860452e-16 1.5475425818860452e-16 -1.0
  outer loop
    vertex 30.36347330937959 83.4836575610272 0.002805735294116432
    vertex 32.86347330937959 81.4836575610272 0.0028057352941157267
    vertex 32.36347330937959 81.4836575610272 0.0028057352941157267
  endloop
endfacet
facet normal 1.1606569364145364e-16 -1.1606569364145364e-16 1.0
  outer loop
    vertex 32.36347330937959 81.4836575610272 0.9999999999999999
    vertex 30.36347330937959 83.98365756102719 1.0000000000000004
    vertex 30.36347330937959 83.4836575610272 1.0000000000000004
  endloop
endfacet
facet normal 1.1606569364145364e-16 -1.1606569364145364e-16 1.0
  outer loop
    vertex 30.36347330937959 83.98365756102719 1.0000000000000004
    vertex 32.36347330937959 81.4836575610272 0.9999999999999999
    vertex 32.86347330937959 81.4836575610272 0.9999999999999999
  endloop
endfacet
facet normal 0.7071067811865468 0.7071067811865482 -1.9951192299208702e-30
  outer loop
    vertex 30.36347330937959 83.98365756102719 0.002805735294116432
    vertex 32.86347330937959 81.4836575610272 0.9999999999999999
    vertex 32.86347330937959 81.4836575610272 0.0028057352941157267
  endloop
endfacet
facet normal 0.7071067811865468 0.7071067811865482 -1.9951192299208702e-30
  outer loop
    vertex 32.86347330937959 81.4836575610272 0.9999999999999999
    vertex 30.36347330937959 83.98365756102719 0.002805735294116432
    vertex 30.36347330937959 83.98365756102719 1.0000000000000004
  endloop
endfacet
facet normal 0.0 0.0 -1.0
  outer loop
    vertex 32.36347330937959 64.88365756102718 0.019079000000000144
    vertex 30.36347330937959 62.383657561027185 0.019079000000000144
    vertex 30.36347330937959 62.883657561027185 0.019079000000000144
  endloop
endfacet
facet normal 0.0 0.0 -1.0
  outer loop
    vertex 30.36347330937959 62.383657561027185 0.019079000000000144
    vertex 32.36347330937959 64.88365756102718 0.019079000000000144
    vertex 32.86347330937959 64.88365756102718 0.019079000000000144
  endloop
endfacet
facet normal 0.0 0.0 1.0
  outer loop
    vertex 32.86347330937959 64.88365756102718 0.9999999999999999
    vertex 30.36347330937959 62.883657561027185 0.9999999999999999
    vertex 30.36347330937959 62.383657561027185 0.9999999999999999
  endloop
endfacet
facet normal 0.0 0.0 1.0
  outer loop
    vertex 30.36347330937959 62.883657561027185 0.9999999999999999
    vertex 32.86347330937959 64.88365756102718 0.9999999999999999
    vertex 32.36347330937959 64.88365756102718 0.9999999999999999
  endloop
endfacet
facet normal 0.7071067811865468 -0.7071067811865482 -5.140373122985562e-17
  outer loop
    vertex 32.86347330937959 64.88365756102718 0.9999999999999999
    vertex 30.36347330937959 62.383657561027185 0.019079000000000144
    vertex 32.86347330937959 64.88365756102718 0.019079000000000144
  endloop
endfacet
facet normal 0.7071067811865468 -0.7071067811865482 -5.140373122985562e-17
  outer loop
    vertex 30.36347330937959 62.383657561027185 0.019079000000000144
    vertex 32.86347330937959 64.88365756102718 0.9999999999999999
    vertex 30.36347330937959 62.383657561027185 0.9999999999999999
  endloop
endfacet
facet normal -1.1606569364145313e-16 1.1606569364145313e-16 -1.0
  outer loop
    vertex 16.76347330937962 64.88365756102718 0.005034985435190854
    vertex 18.76347330937962 62.383657561027185 0.005034985435190325
    vertex 16.263473309379624 64.88365756102718 0.005034985435190854
  endloop
endfacet
facet normal -1.1606569364145313e-16 1.1606569364145313e-16 -1.0
  outer loop
    vertex 18.76347330937962 62.383657561027185 0.005034985435190325
    vertex 16.76347330937962 64.88365756102718 0.005034985435190854
    vertex 18.76347330937962 62.883657561027185 0.005034985435190325
  endloop
endfacet
facet normal 1.1606569364145313e-16 -1.1606569364145313e-16 1.0
  outer loop
    vertex 18.76347330937962 62.383657561027185 1.0000000000000029
    vertex 16.76347330937962 64.88365756102718 1.0000000000000036
    vertex 16.263473309379624 64.88365756102718 1.0000000000000036
  endloop
endfacet
facet normal 1.1606569364145313e-16 -1.1606569364145313e-16 1.0
  outer loop
    vertex 16.76347330937962 64.88365756102718 1.0000000000000036
    vertex 18.76347330937962 62.383657561027185 1.0000000000000029
    vertex 18.76347330937962 62.883657561027185 1.0000000000000029
  endloop
endfacet
facet normal -0.7071067811865471 -0.7071067811865479 1.0020347495380649e-30
  outer loop
    vertex 18.76347330937962 62.383657561027185 1.0000000000000029
    vertex 16.263473309379624 64.88365756102718 0.005034985435190854
    vertex 18.76347330937962 62.383657561027185 0.005034985435190325
  endloop
endfacet
facet normal -0.7071067811865471 -0.7071067811865479 1.0020347495380649e-30
  outer loop
    vertex 16.263473309379624 64.88365756102718 0.005034985435190854
    vertex 18.76347330937962 62.383657561027185 1.0000000000000029
    vertex 16.263473309379624 64.88365756102718 1.0000000000000036
  endloop
endfacet
facet normal 0.0 0.0 -1.0
  outer loop
    vertex 18.76347330937962 83.98365756102719 0.01907900000000358
    vertex 16.76347330937962 81.48365756102719 0.01907900000000358
    vertex 16.263473309379624 81.48365756102719 0.01907900000000358
  endloop
endfacet
facet normal 0.0 0.0 -1.0
  outer loop
    vertex 16.76347330937962 81.48365756102719 0.01907900000000358
    vertex 18.76347330937962 83.98365756102719 0.01907900000000358
    vertex 18.76347330937962 83.48365756102719 0.01907900000000358
  endloop
endfacet
facet normal 0.0 0.0 1.0
  outer loop
    vertex 16.76347330937962 81.48365756102719 1.0000000000000036
    vertex 18.76347330937962 83.98365756102719 1.0000000000000036
    vertex 16.263473309379624 81.48365756102719 1.0000000000000036
  endloop
endfacet
facet normal 0.0 0.0 1.0
  outer loop
    vertex 18.76347330937962 83.98365756102719 1.0000000000000036
    vertex 16.76347330937962 81.48365756102719 1.0000000000000036
    vertex 18.76347330937962 83.48365756102719 1.0000000000000036
  endloop
endfacet
facet normal -0.7071067811865471 0.7071067811865479 0.0
  outer loop
    vertex 16.263473309379624 81.48365756102719 1.0000000000000036
    vertex 18.76347330937962 83.98365756102719 0.01907900000000358
    vertex 16.263473309379624 81.48365756102719 0.01907900000000358
  endloop
endfacet
facet normal -0.7071067811865471 0.7071067811865479 0.0
  outer loop
    vertex 18.76347330937962 83.98365756102719 0.01907900000000358
    vertex 16.263473309379624 81.48365756102719 1.0000000000000036
    vertex 18.76347330937962 83.98365756102719 1.0000000000000036
  endloop
endfacet
facet normal 1.1967450350319058e-16 1.4687325429936992e-17 1.0
  outer loop
    vertex 27.86347330937959 70.18365756102719 1.0000000000000018
    vertex 19.76347330937962 76.18365756102719 1.0000000000000027
    vertex 19.76347330937962 70.18365756102719 1.0000000000000027
  endloop
endfacet
facet normal 1.1967450350319058e-16 1.4687325429936992e-17 1.0
  outer loop
    vertex 19.76347330937962 76.18365756102719 1.0000000000000027
    vertex 27.86347330937959 70.18365756102719 1.0000000000000018
    vertex 27.86347330937959 76.18365756102719 1.0000000000000018
  endloop
endfacet
facet normal 1.950351102390925e-16 -1.331880184789762e-16 1.0
  outer loop
    vertex 30.36347330937959 63.383657561027185 0.9999999999999999
    vertex 18.76347330937962 64.88365756102718 1.0000000000000029
    vertex 18.76347330937962 63.383657561027185 1.0000000000000029
  endloop
endfacet
facet normal 1.950351102390925e-16 -1.331880184789762e-16 1.0
  outer loop
    vertex 18.76347330937962 64.88365756102718 1.0000000000000029
    vertex 30.36347330937959 63.383657561027185 0.9999999999999999
    vertex 19.76347330937962 68.1836575610272 1.0000000000000027
  endloop
endfacet
facet normal 1.950351102390925e-16 -1.331880184789762e-16 1.0
  outer loop
    vertex 19.76347330937962 68.1836575610272 1.0000000000000027
    vertex 30.36347330937959 63.383657561027185 0.9999999999999999
    vertex 19.76347330937962 70.18365756102719 1.0000000000000027
  endloop
endfacet
facet normal 1.950351102390925e-16 -1.331880184789762e-16 1.0
  outer loop
    vertex 19.76347330937962 70.18365756102719 1.0000000000000027
    vertex 30.36347330937959 63.383657561027185 0.9999999999999999
    vertex 27.86347330937959 70.18365756102719 1.0000000000000018
  endloop
endfacet
facet normal 1.950351102390925e-16 -1.331880184789762e-16 1.0
  outer loop
    vertex 27.86347330937959 70.18365756102719 1.0000000000000018
    vertex 30.36347330937959 63.383657561027185 0.9999999999999999
    vertex 30.36347330937959 64.88365756102718 0.9999999999999999
  endloop
endfacet
facet normal 1.950351102390925e-16 -1.331880184789762e-16 1.0
  outer loop
    vertex 27.86347330937959 70.18365756102719 1.0000000000000018
    vertex 30.36347330937959 64.88365756102718 0.9999999999999999
    vertex 32.86347330937959 70.18365756102719 1.0000000000000018
  endloop
endfacet
facet normal 1.950351102390925e-16 -1.331880184789762e-16 1.0
  outer loop
    vertex 32.86347330937959 70.18365756102719 1.0000000000000018
    vertex 30.36347330937959 64.88365756102718 0.9999999999999999
    vertex 32.36347330937959 64.88365756102718 0.9999999999999999
  endloop
endfacet
facet normal 1.950351102390925e-16 -1.331880184789762e-16 1.0
  outer loop
    vertex 32.86347330937959 70.18365756102719 1.0000000000000018
    vertex 32.36347330937959 64.88365756102718 0.9999999999999999
    vertex 32.86347330937959 64.88365756102718 0.9999999999999999
  endloop
endfacet
facet normal 1.950351102390925e-16 -1.331880184789762e-16 1.0
  outer loop
    vertex 16.76347330937962 64.88365756102718 1.0000000000000036
    vertex 16.263473309379624 68.1836575610272 1.0000000000000036
    vertex 16.263473309379624 64.88365756102718 1.0000000000000036
  endloop
endfacet
facet normal 1.950351102390925e-16 -1.331880184789762e-16 1.0
  outer loop
    vertex 16.263473309379624 68.1836575610272 1.0000000000000036
    vertex 16.76347330937962 64.88365756102718 1.0000000000000036
    vertex 19.76347330937962 68.1836575610272 1.0000000000000027
  endloop
endfacet
facet normal 1.950351102390925e-16 -1.331880184789762e-16 1.0
  outer loop
    vertex 19.76347330937962 68.1836575610272 1.0000000000000027
    vertex 16.76347330937962 64.88365756102718 1.0000000000000036
    vertex 18.76347330937962 64.88365756102718 1.0000000000000029
  endloop
endfacet
facet normal 0.0 -1.0 0.0
  outer loop
    vertex 32.86347330937959 76.18365756102719 1.0000000000000013
    vertex 27.86347330937959 76.18365756102719 0.013883319099928716
    vertex 32.86347330937959 76.18365756102719 0.013883319099928364
  endloop
endfacet
facet normal 0.0 -1.0 0.0
  outer loop
    vertex 27.86347330937959 76.18365756102719 0.013883319099928716
    vertex 32.86347330937959 76.18365756102719 1.0000000000000013
    vertex 27.86347330937959 76.18365756102719 1.0000000000000018
  endloop
endfacet
facet normal 1.0 -1.5531662036510885e-33 -5.287437154777307e-17
  outer loop
    vertex 27.86347330937959 76.18365756102719 0.013883319099928716
    vertex 27.86347330937959 70.18365756102719 1.0000000000000018
    vertex 27.86347330937959 70.18365756102719 0.013883319099928893
  endloop
endfacet
facet normal 1.0 -1.5531662036510885e-33 -5.287437154777307e-17
  outer loop
    vertex 27.86347330937959 70.18365756102719 1.0000000000000018
    vertex 27.86347330937959 76.18365756102719 0.013883319099928716
    vertex 27.86347330937959 76.18365756102719 1.0000000000000018
  endloop
endfacet
facet normal 0.0 1.0 0.0
  outer loop
    vertex 27.86347330937959 70.18365756102719 0.013883319099928893
    vertex 32.86347330937959 70.18365756102719 1.0000000000000018
    vertex 32.86347330937959 70.18365756102719 0.013883319099928716
  endloop
endfacet
facet normal 0.0 1.0 0.0
  outer loop
    vertex 32.86347330937959 70.18365756102719 1.0000000000000018
    vertex 27.86347330937959 70.18365756102719 0.013883319099928893
    vertex 27.86347330937959 70.18365756102719 1.0000000000000018
  endloop
endfacet
facet normal 1.0 0.0 0.0
  outer loop
    vertex 32.86347330937959 81.4836575610272 0.0028057352941157267
    vertex 32.86347330937959 76.18365756102719 1.0000000000000013
    vertex 32.86347330937959 76.18365756102719 0.013883319099928364
  endloop
endfacet
facet normal 1.0 0.0 0.0
  outer loop
    vertex 32.86347330937959 76.18365756102719 1.0000000000000013
    vertex 32.86347330937959 81.4836575610272 0.0028057352941157267
    vertex 32.86347330937959 81.4836575610272 0.9999999999999999
  endloop
endfacet
facet normal 0.0 -1.0 0.0
  outer loop
    vertex 19.76347330937962 78.18365756102718 1.0000000000000027
    vertex 16.263473309379624 78.18365756102718 0.014595067638949171
    vertex 19.76347330937962 78.18365756102718 0.014595067638948467
  endloop
endfacet
facet normal 0.0 -1.0 0.0
  outer loop
    vertex 16.263473309379624 78.18365756102718 0.014595067638949171
    vertex 19.76347330937962 78.18365756102718 1.0000000000000027
    vertex 16.263473309379624 78.18365756102718 1.0000000000000036
  endloop
endfacet
facet normal 0.0 1.0 0.0
  outer loop
    vertex 16.263473309379624 68.1836575610272 0.014595067638949171
    vertex 19.76347330937962 68.1836575610272 1.0000000000000027
    vertex 19.76347330937962 68.1836575610272 0.014595067638948467
  endloop
endfacet
facet normal 0.0 1.0 0.0
  outer loop
    vertex 19.76347330937962 68.1836575610272 1.0000000000000027
    vertex 16.263473309379624 68.1836575610272 0.014595067638949171
    vertex 16.263473309379624 68.1836575610272 1.0000000000000036
  endloop
endfacet
facet normal -9.724022353613466e-16 1.0 5.207357806124381e-31
  outer loop
    vertex 18.76347330937962 84.18365756102718 0.01907900000000358
    vertex 30.36347330937959 84.18365756102719 1.0000000000000004
    vertex 30.36347330937959 84.18365756102719 0.002805735294116432
  endloop
endfacet
facet normal -9.724022353613466e-16 1.0 5.207357806124381e-31
  outer loop
    vertex 30.36347330937959 84.18365756102719 1.0000000000000004
    vertex 18.76347330937962 84.18365756102718 0.01907900000000358
    vertex 18.76347330937962 84.18365756102718 1.0000000000000036
  endloop
endfacet
facet normal -9.724022353613466e-16 1.0 5.207357806124381e-31
  outer loop
    vertex 30.36347330937959 84.18365756102719 1.0000000000000004
    vertex 18.76347330937962 84.18365756102718 1.0000000000000036
    vertex 30.36347330937959 84.18365756102719 2.0000000000000004
  endloop
endfacet
facet normal -9.724022353613466e-16 1.0 5.207357806124381e-31
  outer loop
    vertex 30.36347330937959 84.18365756102719 2.0000000000000004
    vertex 18.76347330937962 84.18365756102718 1.0000000000000036
    vertex 18.76347330937962 84.18365756102718 2.0000000000000036
  endloop
endfacet
facet normal 1.0 9.724022353613466e-16 0.0
  outer loop
    vertex 30.36347330937959 84.18365756102719 0.002805735294116432
    vertex 30.36347330937959 83.98365756102719 1.0000000000000004
    vertex 30.36347330937959 83.98365756102719 0.002805735294116432
  endloop
endfacet
facet normal 1.0 9.724022353613466e-16 0.0
  outer loop
    vertex 30.36347330937959 83.98365756102719 1.0000000000000004
    vertex 30.36347330937959 84.18365756102719 0.002805735294116432
    vertex 30.36347330937959 84.18365756102719 1.0000000000000004
  endloop
endfacet
facet normal -1.0 -9.724022353613466e-16 0.0
  outer loop
    vertex 18.76347330937962 84.18365756102718 1.0000000000000036
    vertex 18.76347330937962 83.98365756102719 0.01907900000000358
    vertex 18.76347330937962 83.98365756102719 1.0000000000000036
  endloop
endfacet
facet normal -1.0 -9.724022353613466e-16 0.0
  outer loop
    vertex 18.76347330937962 83.98365756102719 0.01907900000000358
    vertex 18.76347330937962 84.18365756102718 1.0000000000000036
    vertex 18.76347330937962 84.18365756102718 0.01907900000000358
  endloop
endfacet
facet normal 0.0 -1.0 0.0
  outer loop
    vertex 30.36347330937959 62.18365756102719 0.019079000000000144
    vertex 18.76347330937962 62.18365756102719 1.0000000000000029
    vertex 18.76347330937962 62.18365756102719 0.005034985435190325
  endloop
endfacet
facet normal 0.0 -1.0 0.0
  outer loop
    vertex 18.76347330937962 62.18365756102719 1.0000000000000029
    vertex 30.36347330937959 62.18365756102719 0.019079000000000144
    vertex 30.36347330937959 62.18365756102719 0.9999999999999999
  endloop
endfacet
facet normal 0.0 -1.0 0.0
  outer loop
    vertex 18.76347330937962 62.18365756102719 1.0000000000000029
    vertex 30.36347330937959 62.18365756102719 0.9999999999999999
    vertex 30.36347330937959 62.18365756102719 1.9999999999999998
  endloop
endfacet
facet normal 0.0 -1.0 0.0
  outer loop
    vertex 18.76347330937962 62.18365756102719 1.0000000000000029
    vertex 30.36347330937959 62.18365756102719 1.9999999999999998
    vertex 18.76347330937962 62.18365756102719 2.0000000000000027
  endloop
endfacet
facet normal -1.0 -0.0 -0.0
  outer loop
    vertex 18.76347330937962 62.383657561027185 1.0000000000000029
    vertex 18.76347330937962 62.18365756102719 0.005034985435190325
    vertex 18.76347330937962 62.18365756102719 1.0000000000000029
  endloop
endfacet
facet normal -1.0 -0.0 -0.0
  outer loop
    vertex 18.76347330937962 62.18365756102719 0.005034985435190325
    vertex 18.76347330937962 62.383657561027185 1.0000000000000029
    vertex 18.76347330937962 62.383657561027185 0.005034985435190325
  endloop
endfacet
facet normal 1.0 0.0 0.0
  outer loop
    vertex 30.36347330937959 62.383657561027185 0.019079000000000144
    vertex 30.36347330937959 62.18365756102719 0.9999999999999999
    vertex 30.36347330937959 62.18365756102719 0.019079000000000144
  endloop
endfacet
facet normal 1.0 0.0 0.0
  outer loop
    vertex 30.36347330937959 62.18365756102719 0.9999999999999999
    vertex 30.36347330937959 62.383657561027185 0.019079000000000144
    vertex 30.36347330937959 62.383657561027185 0.9999999999999999
  endloop
endfacet
endsolid ACE Case
